<svg width="456" height="436" viewBox="0 0 456 436" fill="none" xmlns="http://www.w3.org/2000/svg">
<path d="M0 306.25C0 288.281 3.90625 271.484 11.7188 255.859C19.5312 239.974 29.5573 226.432 41.7969 215.234C54.2969 204.036 67.9688 193.62 82.8125 183.984C97.9167 174.089 113.021 165.104 128.125 157.031C143.229 148.958 156.901 141.146 169.141 133.594C181.641 126.042 191.797 118.099 199.609 109.766C207.422 101.172 211.328 92.4479 211.328 83.5938C211.328 69.7917 204.427 60.5469 190.625 55.8594C190.365 55.8594 189.844 55.7292 189.062 55.4688C187.24 54.9479 184.505 54.4271 180.859 53.9062H180.469C175.781 53.3854 171.224 53.125 166.797 53.125C162.37 53.125 158.203 53.3854 154.297 53.9062C139.453 55.7292 125.521 61.1979 112.5 70.3125L96.875 49.6094C130.729 16.5365 170.312 0 215.625 0C224.74 0 234.245 0.651042 244.141 1.95312C289.974 8.20312 327.865 29.1667 357.812 64.8438C388.021 100.521 403.906 145.052 405.469 198.438L403.906 345.703C403.906 355.078 404.036 361.979 404.297 366.406C404.557 370.833 405.208 376.042 406.25 382.031C407.292 387.76 408.984 391.927 411.328 394.531C413.932 397.135 417.578 399.479 422.266 401.562C426.953 403.385 432.943 404.297 440.234 404.297C445.964 404.297 451.172 403.906 455.859 403.125V407.422C429.818 423.828 401.562 432.031 371.094 432.031C370.573 432.031 370.052 432.031 369.531 432.031C332.812 431.771 308.464 418.359 296.484 391.797C256.641 420.703 211.328 435.156 160.547 435.156C111.849 435.156 72.9167 423.438 43.75 400C14.5833 376.562 0 345.312 0 306.25ZM122.266 295.703C122.266 324.87 131.25 348.307 149.219 366.016C167.448 383.464 191.797 392.188 222.266 392.188C246.224 392.188 269.141 386.068 291.016 373.828V373.047L292.188 181.25L298.438 182.422L291.797 181.25C291.797 164.844 291.536 151.302 291.016 140.625C290.755 129.688 290.104 117.969 289.062 105.469C288.281 92.9688 286.979 82.8125 285.156 75C283.594 66.9271 281.38 58.8542 278.516 50.7812C275.911 42.4479 272.526 35.9375 268.359 31.25C264.453 26.3021 259.635 22.1354 253.906 18.75C248.177 15.3646 241.536 13.151 233.984 12.1094C232.422 11.849 230.859 11.7188 229.297 11.7188C213.672 11.7188 199.349 22.2656 186.328 43.3594C201.172 45.1823 213.151 50.1302 222.266 58.2031C231.38 66.276 235.938 77.2135 235.938 91.0156C235.938 103.255 232.031 115.625 224.219 128.125C216.406 140.625 206.901 152.604 195.703 164.062C184.766 175.521 173.698 187.5 162.5 200C151.302 212.24 141.797 226.693 133.984 243.359C126.172 260.026 122.266 277.474 122.266 295.703Z" fill="white"/>
</svg>
